<?xml version="1.0" encoding="UTF-8"?>
<svg id="Layer_1" xmlns="http://www.w3.org/2000/svg" version="1.1" viewBox="0 0 1000 1000">
  <!-- Generator: Adobe Illustrator 29.8.1, SVG Export Plug-In . SVG Version: 2.1.1 Build 2)  -->
  <defs>
    <style>
      .st0 {
        fill: #004587;
        stroke: #fff;
      }
    </style>
  </defs>
  <path class="st0" d="M150.5,347.8c-2.5-40.3,3.6-75.2,18.3-104.8,14.7-29.6,37.8-52.5,69.3-68.7,31.5-16.2,71.1-24.3,118.8-24.3s53.5,3.4,79.6,10.3,55.6,19.9,88.3,39.1c14.5,8.1,27.3,14.9,38.2,20.3,11,5.4,24.4,8.1,40.1,8.1s33.9-5.1,46.9-15.2c13.1-10.1,19-27,17.7-50.5h181.6c2.5,40-4,74.9-19.6,104.6-15.6,29.7-39.1,52.7-70.6,68.9s-70.3,24.3-116.3,24.3-57.5-3.8-84.3-11.5c-26.7-7.7-55.4-20.3-86.1-37.9-16.6-9.7-29.6-16.9-38.9-21.5-9.3-4.6-21.7-6.9-37-6.9s-34.9,5.1-47.6,15.2c-12.7,10.1-18.3,27-17.1,50.5h-181.6Z"/>
  <path class="st0" d="M150.5,592.8c-2.5-40.3,3.6-75.2,18.3-104.8,14.7-29.6,37.8-52.5,69.3-68.7,31.5-16.2,71.1-24.3,118.8-24.3s53.5,3.4,79.6,10.3,55.6,19.9,88.3,39.1c14.5,8.1,27.3,14.9,38.2,20.3,11,5.4,24.4,8.1,40.1,8.1s33.9-5.1,46.9-15.2c13.1-10.1,19-27,17.7-50.5h181.6c2.5,40-4,74.9-19.6,104.6-15.6,29.7-39.1,52.7-70.6,68.9s-70.3,24.3-116.3,24.3-57.5-3.8-84.3-11.5c-26.7-7.7-55.4-20.3-86.1-37.9-16.6-9.7-29.6-16.9-38.9-21.5-9.3-4.6-21.7-6.9-37-6.9s-34.9,5.1-47.6,15.2c-12.7,10.1-18.3,27-17.1,50.5h-181.6Z"/>
  <path class="st0" d="M150.5,837.8c-2.5-40.3,3.6-75.2,18.3-104.8,14.7-29.6,37.8-52.5,69.3-68.7,31.5-16.2,71.1-24.3,118.8-24.3s53.5,3.4,79.6,10.3c26.1,6.9,55.6,19.9,88.3,39.1,14.5,8.1,27.3,14.9,38.2,20.3,11,5.4,24.4,8.1,40.1,8.1s33.9-5.1,46.9-15.2c13.1-10.1,19-27,17.7-50.5h181.6c2.5,40-4,74.9-19.6,104.6-15.6,29.7-39.1,52.7-70.6,68.9-31.5,16.2-70.3,24.3-116.3,24.3s-57.5-3.8-84.3-11.5c-26.7-7.7-55.4-20.3-86.1-37.9-16.6-9.7-29.6-16.9-38.9-21.5-9.3-4.6-21.7-6.9-37-6.9s-34.9,5.1-47.6,15.2c-12.7,10.1-18.3,27-17.1,50.5h-181.6Z"/>
</svg>