<?xml version="1.0" encoding="UTF-8"?>
<svg xmlns="http://www.w3.org/2000/svg" viewBox="0 0 1080 1080">
  <defs>
    <style>
      .letter {fill: #fff;}

      .out-circle {fill: #004587;}

      .white-ring {
        fill: none;
        stroke: #fff;
        stroke-width: 40px;
      }
    </style>
  </defs>
  <g>
    <circle class="out-circle" cx="540" cy="540" r="540"/>
  </g>
  <g>
    <circle class="white-ring" cx="540" cy="540" r="480"/>
  </g>
  <g>
    <path class="letter" d="M621.6,875.52v-231.3h-16.2c-6,10.21-14.71,20.25-26.1,30.15-11.4,9.9-26.25,18-44.55,24.3-18.31,6.3-40.95,9.45-67.95,9.45-36,0-69.3-8.86-99.9-26.55s-55.21-43.65-73.8-77.85c-18.6-34.2-27.9-75.6-27.9-124.2v-14.4c0-48.6,9.3-90,27.9-124.2,18.59-34.2,43.34-60.15,74.25-77.85,30.9-17.69,64.04-26.55,99.45-26.55,40.8,0,71.85,6.75,93.15,20.25,21.29,13.5,37.04,28.95,47.25,46.35h16.2v-54h111.6v626.4h-113.4ZM501,609.12c35.4,0,64.65-11.25,87.75-33.75,23.09-22.5,34.65-55.35,34.65-98.55v-9c0-43.2-11.7-76.05-35.1-98.55s-52.51-33.75-87.3-33.75-63.9,11.25-87.3,33.75-35.1,55.35-35.1,98.55v9c0,43.2,11.7,76.05,35.1,98.55s52.5,33.75,87.3,33.75Z"/>
  </g>
</svg>